@startuml HospitalNotification

hide empty members

class "MedComHospitalNotificationMessage" as message <<MedComMessagingMessage>>
class "MedComHospitalNotificationMessageHeader" as messageHeader <<MedComMessagingMessageHeader>>
class "MedComMessagingOrganization" as organization <<MedComCoreOrganization>>
class "MedComCorePatient" as patient
class "MedComHospitalNotificationEncounter" as encounter <<MedComCoreEncounter>>
class "MedComMessagingProvenance" as provenance
class "MedComCoreOrganization" as serviceProvider

message --> messageHeader : "entry"
messageHeader --> encounter : "focus"
encounter --> patient : "subject"
encounter --> serviceProvider : "service provider"
message --> provenance : "entry"
provenance --> messageHeader : "target"
provenance --> organization : "agent.who"

messageHeader --> organization : "sender"
messageHeader --> organization : "receiver"

@enduml
